<svg id="svg" version="1.1" xmlns="http://www.w3.org/2000/svg" xmlns:xlink="http://www.w3.org/1999/xlink" width="400" height="400" viewBox="0, 0, 400,400"><g id="svgg"><path id="path0" d="M187.200 0.490 C 184.010 0.694,181.085 0.885,180.700 0.916 C 180.315 0.946,180.000 1.113,180.000 1.286 C 180.000 1.459,179.220 1.600,178.267 1.600 C 177.313 1.600,176.404 1.729,176.246 1.888 C 176.087 2.046,175.472 2.212,174.879 2.256 C 172.746 2.416,170.400 2.911,170.400 3.201 C 170.400 3.364,169.325 3.618,168.012 3.767 C 166.699 3.915,165.533 4.185,165.421 4.366 C 165.309 4.547,164.314 4.814,163.209 4.961 C 162.104 5.108,161.200 5.401,161.200 5.614 C 161.200 5.826,160.761 6.000,160.224 6.000 C 159.687 6.000,159.141 6.172,159.011 6.383 C 158.881 6.593,158.528 6.671,158.228 6.555 C 157.927 6.440,157.562 6.538,157.417 6.773 C 157.272 7.008,156.713 7.200,156.176 7.200 C 155.639 7.200,155.200 7.366,155.200 7.568 C 155.200 7.771,154.621 8.064,153.913 8.219 C 153.205 8.375,152.350 8.653,152.013 8.837 C 150.653 9.580,147.369 10.924,146.900 10.928 C 146.625 10.931,146.400 11.083,146.400 11.267 C 146.400 11.450,146.055 11.600,145.633 11.600 C 145.212 11.600,144.807 11.735,144.733 11.900 C 144.660 12.065,143.790 12.585,142.800 13.056 C 141.810 13.527,140.280 14.277,139.400 14.723 C 138.520 15.169,136.990 15.941,136.000 16.438 C 135.010 16.936,134.054 17.585,133.875 17.880 C 133.697 18.175,133.402 18.325,133.221 18.213 C 133.039 18.101,132.668 18.277,132.396 18.604 C 132.124 18.932,131.679 19.200,131.406 19.200 C 130.973 19.200,129.040 20.533,127.208 22.095 C 126.883 22.373,126.478 22.555,126.308 22.500 C 126.139 22.445,126.000 22.563,126.000 22.762 C 126.000 22.961,125.190 23.599,124.200 24.179 C 123.210 24.759,122.400 25.406,122.400 25.617 C 122.400 25.828,122.138 26.000,121.818 26.000 C 121.498 26.000,120.786 26.450,120.236 27.000 C 119.686 27.550,119.088 28.000,118.907 28.000 C 118.726 28.000,118.298 28.315,117.956 28.700 C 117.103 29.660,114.826 31.625,114.702 31.508 C 114.464 31.286,102.400 43.764,102.400 44.232 C 102.400 44.515,102.040 44.860,101.600 45.000 C 101.160 45.140,100.800 45.409,100.800 45.598 C 100.800 45.788,100.575 46.181,100.299 46.471 C 100.024 46.762,99.353 47.664,98.808 48.476 C 98.264 49.287,97.738 49.872,97.641 49.774 C 97.544 49.677,97.035 50.318,96.509 51.199 C 95.984 52.079,95.406 52.800,95.224 52.800 C 95.042 52.800,94.788 53.115,94.658 53.500 C 94.378 54.335,93.654 55.467,92.714 56.539 C 92.336 56.969,92.110 57.455,92.212 57.619 C 92.313 57.782,92.118 58.023,91.780 58.152 C 91.441 58.282,90.886 58.976,90.547 59.694 C 89.358 62.209,89.008 62.800,88.705 62.800 C 88.537 62.800,88.400 63.057,88.400 63.371 C 88.400 63.686,88.175 64.186,87.900 64.483 C 87.625 64.780,86.927 66.008,86.349 67.212 C 85.772 68.415,84.626 70.785,83.803 72.477 C 82.981 74.169,82.350 75.609,82.402 75.677 C 82.453 75.745,82.024 76.645,81.448 77.677 C 80.872 78.709,80.400 79.834,80.400 80.177 C 80.400 80.520,80.236 80.800,80.035 80.800 C 79.834 80.800,79.549 81.520,79.400 82.400 C 79.251 83.280,78.982 84.000,78.802 84.000 C 78.622 84.000,78.351 84.900,78.200 86.000 C 78.049 87.100,77.805 88.000,77.657 88.000 C 77.510 88.000,77.050 89.215,76.634 90.700 C 76.218 92.185,75.737 93.584,75.565 93.810 C 75.392 94.035,75.127 95.160,74.974 96.310 C 74.822 97.459,74.563 98.400,74.400 98.400 C 74.237 98.400,73.979 99.660,73.827 101.200 C 73.676 102.740,73.416 104.000,73.251 104.000 C 73.085 104.000,72.907 104.822,72.855 105.826 C 72.803 106.830,72.615 108.045,72.438 108.526 C 72.261 109.007,72.175 110.075,72.248 110.900 C 72.321 111.725,72.224 112.400,72.032 112.400 C 71.487 112.400,71.173 118.177,71.164 128.400 C 71.155 138.269,71.470 145.200,71.928 145.200 C 72.078 145.200,72.242 145.965,72.294 146.900 C 72.453 149.770,72.870 152.580,73.198 153.000 C 73.370 153.220,73.639 154.525,73.795 155.901 C 73.951 157.276,74.241 158.502,74.439 158.624 C 74.638 158.747,74.800 159.356,74.800 159.978 C 74.800 160.937,75.514 163.792,76.306 166.000 C 76.424 166.330,76.572 166.780,76.634 167.000 C 76.697 167.220,76.923 167.971,77.137 168.670 C 77.352 169.368,77.408 170.072,77.263 170.234 C 77.119 170.396,77.205 170.411,77.455 170.268 C 77.753 170.098,78.004 170.631,78.181 171.812 C 78.330 172.804,78.597 173.525,78.776 173.415 C 78.954 173.305,79.216 173.939,79.358 174.825 C 79.499 175.710,79.780 176.742,79.982 177.117 C 80.184 177.493,80.940 179.150,81.663 180.800 C 82.386 182.450,83.103 183.892,83.257 184.004 C 83.411 184.116,83.660 184.701,83.812 185.304 C 83.963 185.907,84.247 186.400,84.443 186.400 C 84.640 186.400,84.800 186.749,84.800 187.176 C 84.800 187.603,84.983 188.066,85.207 188.204 C 85.430 188.342,85.509 188.623,85.383 188.828 C 85.256 189.032,85.298 189.201,85.476 189.203 C 85.654 189.205,85.990 189.610,86.223 190.103 C 87.148 192.068,88.617 194.607,88.900 194.733 C 89.065 194.807,89.200 195.041,89.200 195.255 C 89.200 195.468,90.010 196.883,91.000 198.400 C 91.990 199.917,92.800 201.358,92.800 201.602 C 92.800 201.847,92.961 201.948,93.157 201.826 C 93.354 201.705,93.627 202.054,93.765 202.603 C 93.903 203.151,94.192 203.600,94.408 203.600 C 94.623 203.600,94.800 203.861,94.800 204.180 C 94.800 204.499,95.029 204.904,95.310 205.080 C 95.590 205.256,96.161 205.937,96.579 206.592 C 96.997 207.248,97.713 208.097,98.170 208.479 C 98.626 208.861,98.879 209.179,98.731 209.187 C 98.583 209.194,98.943 209.720,99.531 210.355 C 101.153 212.109,101.600 212.724,101.600 213.207 C 101.600 213.449,101.780 213.536,102.000 213.400 C 102.220 213.264,102.400 213.329,102.400 213.545 C 102.400 213.760,103.210 214.747,104.200 215.737 C 105.190 216.727,106.000 217.644,106.000 217.775 C 106.000 218.202,108.760 220.707,108.983 220.484 C 109.102 220.364,109.200 220.461,109.200 220.699 C 109.200 221.140,111.805 224.000,112.207 224.000 C 112.329 224.000,113.278 224.822,114.315 225.828 C 115.352 226.833,116.679 227.909,117.265 228.220 C 117.850 228.530,118.705 229.262,119.165 229.846 C 119.624 230.430,120.000 230.760,120.000 230.579 C 120.000 230.397,120.351 230.598,120.781 231.025 C 121.929 232.165,122.732 232.800,123.026 232.800 C 123.287 232.800,126.429 235.161,126.800 235.636 C 126.910 235.777,127.408 236.019,127.906 236.175 C 128.404 236.330,128.708 236.625,128.582 236.829 C 128.456 237.033,128.714 237.200,129.157 237.200 C 129.599 237.200,130.104 237.425,130.280 237.700 C 130.456 237.975,131.185 238.515,131.900 238.900 C 132.615 239.285,133.785 239.915,134.500 240.300 C 135.215 240.685,135.890 241.093,136.000 241.206 C 136.110 241.319,136.949 241.768,137.864 242.202 C 138.779 242.637,139.455 243.110,139.367 243.254 C 139.278 243.397,139.654 243.627,140.203 243.765 L 141.200 244.015 141.200 262.608 L 141.200 281.200 170.700 281.200 L 200.200 281.200 200.097 229.517 C 200.008 184.992,199.916 177.915,199.429 178.417 C 199.118 178.738,196.034 182.510,192.576 186.800 C 189.117 191.090,186.057 194.577,185.774 194.549 C 185.128 194.486,168.000 180.850,168.000 180.400 C 168.000 180.218,170.365 177.128,173.255 173.534 C 176.146 169.940,179.791 165.381,181.355 163.402 C 182.920 161.424,187.488 155.697,191.507 150.676 C 195.526 145.655,198.711 141.379,198.584 141.173 C 198.445 140.949,189.325 140.800,175.776 140.800 C 161.655 140.800,153.200 140.657,153.200 140.417 C 153.200 140.206,156.332 136.111,160.160 131.317 C 163.988 126.523,174.518 113.340,183.560 102.023 L 200.000 81.446 200.000 41.203 C 200.000 10.436,200.113 0.847,200.480 0.480 C 201.054 -0.094,196.287 -0.090,187.200 0.490 M32.668 20.073 C 32.537 20.592,32.057 21.417,31.600 21.908 C 31.143 22.399,30.872 22.800,30.999 22.800 C 31.125 22.800,30.772 23.472,30.214 24.293 C 29.656 25.114,29.200 26.014,29.200 26.293 C 29.200 26.572,29.059 26.800,28.888 26.800 C 28.716 26.800,28.362 27.295,28.102 27.900 C 27.642 28.969,26.806 30.394,26.400 30.800 C 26.290 30.910,25.796 31.810,25.302 32.800 C 24.379 34.650,23.560 36.047,23.191 36.400 C 21.138 38.362,21.274 40.262,23.552 41.464 C 24.516 41.973,25.551 42.593,25.852 42.843 C 26.153 43.093,26.403 43.141,26.406 42.949 C 26.409 42.757,26.544 42.780,26.706 43.000 C 27.160 43.618,29.517 45.200,29.984 45.200 C 30.213 45.200,30.400 45.380,30.400 45.600 C 30.400 45.820,30.732 46.000,31.138 46.000 C 31.544 46.000,32.387 46.440,33.013 46.977 C 33.638 47.515,34.269 47.881,34.414 47.791 C 34.560 47.701,35.051 47.974,35.505 48.398 C 35.960 48.821,36.790 49.283,37.350 49.423 C 37.909 49.564,38.577 49.931,38.833 50.239 C 39.089 50.548,39.546 50.800,39.849 50.800 C 40.152 50.800,40.400 50.977,40.400 51.192 C 40.400 51.408,40.850 51.698,41.400 51.836 C 41.950 51.974,42.400 52.247,42.400 52.443 C 42.400 52.640,42.670 52.800,43.000 52.800 C 43.330 52.800,43.600 52.980,43.600 53.200 C 43.600 53.420,43.735 53.571,43.900 53.535 C 44.528 53.400,46.505 54.491,49.700 56.734 C 50.745 57.468,51.600 57.951,51.600 57.807 C 51.600 57.663,52.179 57.958,52.887 58.462 C 53.595 58.966,54.414 59.414,54.707 59.457 C 55.000 59.500,55.815 59.955,56.520 60.467 C 57.224 60.980,58.520 61.760,59.400 62.199 C 60.280 62.639,61.180 63.207,61.400 63.463 C 62.128 64.307,63.515 63.312,64.513 61.228 C 65.043 60.119,65.610 59.344,65.772 59.506 C 65.934 59.668,66.016 59.620,65.954 59.400 C 65.791 58.822,66.397 57.200,66.775 57.200 C 66.952 57.200,67.705 55.985,68.448 54.500 C 69.192 53.015,69.911 51.710,70.046 51.600 C 70.181 51.490,70.419 50.995,70.573 50.500 C 70.728 50.005,71.002 49.600,71.184 49.600 C 71.365 49.600,71.626 49.150,71.764 48.600 C 71.902 48.050,72.192 47.600,72.408 47.600 C 72.623 47.600,72.800 47.330,72.800 47.000 C 72.800 46.670,73.010 46.400,73.267 46.400 C 73.523 46.400,73.619 46.285,73.478 46.145 C 73.338 46.005,73.591 45.374,74.041 44.743 C 75.191 43.127,74.890 42.394,72.599 41.235 C 71.500 40.679,70.510 40.119,70.400 39.990 C 70.290 39.862,69.390 39.342,68.400 38.835 C 67.410 38.327,66.510 37.797,66.400 37.656 C 66.290 37.515,65.480 37.026,64.600 36.568 C 61.933 35.181,59.012 33.494,58.800 33.219 C 58.690 33.075,57.880 32.625,57.000 32.217 C 56.120 31.810,54.843 31.054,54.162 30.538 C 53.481 30.022,52.741 29.600,52.516 29.600 C 52.292 29.600,51.658 29.246,51.108 28.813 C 50.557 28.380,49.997 28.136,49.863 28.270 C 49.729 28.405,49.506 28.220,49.368 27.860 C 49.229 27.499,48.970 27.295,48.790 27.406 C 48.611 27.517,48.191 27.334,47.856 26.999 C 47.522 26.665,46.383 25.935,45.324 25.377 C 44.266 24.819,42.500 23.821,41.400 23.160 C 40.300 22.498,39.085 21.856,38.700 21.732 C 38.315 21.608,38.000 21.348,38.000 21.153 C 38.000 20.959,37.743 20.800,37.429 20.800 C 37.114 20.800,36.600 20.543,36.286 20.229 C 35.159 19.101,32.935 19.006,32.668 20.073 M0.094 129.300 L 0.200 141.400 24.300 141.503 L 48.400 141.606 48.400 129.403 L 48.400 117.200 24.194 117.200 L -0.012 117.200 0.094 129.300 M59.600 196.042 C 58.390 196.702,57.340 197.413,57.267 197.621 C 57.193 197.830,56.946 198.000,56.717 198.000 C 56.489 198.000,54.967 198.810,53.336 199.800 C 51.706 200.790,50.225 201.600,50.046 201.600 C 49.867 201.600,49.014 202.095,48.151 202.700 C 46.253 204.031,43.605 205.532,42.000 206.186 C 40.897 206.637,39.395 207.588,39.779 207.594 C 39.987 207.597,39.177 208.084,37.979 208.676 C 36.780 209.268,35.740 209.898,35.667 210.076 C 35.593 210.254,35.231 210.400,34.863 210.400 C 34.494 210.400,33.699 210.857,33.096 211.416 C 32.493 211.975,32.000 212.332,32.000 212.210 C 32.000 212.088,30.856 212.710,29.457 213.594 C 28.058 214.477,26.781 215.200,26.619 215.200 C 26.456 215.200,25.825 215.555,25.217 215.988 C 24.608 216.422,23.995 216.662,23.855 216.522 C 23.715 216.381,23.600 216.477,23.600 216.733 C 23.600 216.990,23.407 217.200,23.171 217.200 C 22.534 217.200,21.600 218.253,21.600 218.971 C 21.600 219.317,21.780 219.600,22.000 219.600 C 22.220 219.600,22.381 219.735,22.357 219.900 C 22.270 220.504,22.903 222.000,23.247 222.000 C 23.441 222.000,23.600 222.257,23.600 222.571 C 23.600 222.886,23.846 223.389,24.147 223.690 C 24.448 223.991,24.830 224.665,24.996 225.188 C 25.162 225.711,25.630 226.495,26.035 226.930 C 26.441 227.365,26.678 227.874,26.563 228.061 C 26.447 228.247,26.543 228.400,26.776 228.400 C 27.009 228.400,27.200 228.670,27.200 229.000 C 27.200 229.330,27.362 229.600,27.561 229.600 C 27.759 229.600,28.123 230.095,28.370 230.700 C 28.616 231.305,29.353 232.700,30.006 233.800 C 30.659 234.900,31.306 236.115,31.444 236.500 C 31.581 236.885,31.833 237.200,32.003 237.200 C 32.174 237.200,32.421 237.630,32.553 238.156 C 32.854 239.353,33.914 239.792,34.758 239.068 C 35.111 238.765,35.940 238.248,36.600 237.919 C 38.833 236.806,40.561 235.802,41.110 235.300 C 41.411 235.025,41.914 234.800,42.229 234.800 C 42.543 234.800,42.800 234.620,42.800 234.400 C 42.800 234.180,42.997 234.000,43.238 234.000 C 43.479 234.000,44.199 233.628,44.838 233.173 C 45.477 232.718,46.000 232.461,46.000 232.601 C 46.000 232.742,46.283 232.574,46.629 232.229 C 46.974 231.883,47.514 231.600,47.829 231.600 C 48.143 231.600,48.400 231.423,48.400 231.208 C 48.400 230.992,48.850 230.702,49.400 230.564 C 49.950 230.426,50.400 230.167,50.400 229.988 C 50.400 229.810,50.942 229.545,51.603 229.399 C 52.265 229.254,52.705 228.970,52.580 228.767 C 52.455 228.565,52.723 228.400,53.176 228.400 C 53.629 228.400,54.000 228.228,54.000 228.019 C 54.000 227.809,54.675 227.320,55.500 226.932 C 56.325 226.544,57.606 225.818,58.347 225.319 C 59.088 224.820,59.853 224.509,60.047 224.629 C 60.241 224.749,60.400 224.657,60.400 224.424 C 60.400 224.191,60.670 224.000,61.000 224.000 C 61.330 224.000,61.600 223.820,61.600 223.600 C 61.600 223.380,61.842 223.200,62.139 223.200 C 62.435 223.200,63.093 222.840,63.600 222.400 C 64.107 221.960,64.773 221.600,65.079 221.600 C 65.385 221.600,66.113 221.156,66.698 220.614 C 67.283 220.072,68.253 219.520,68.853 219.388 C 69.454 219.256,70.159 218.890,70.421 218.574 C 70.683 218.258,71.146 218.000,71.449 218.000 C 71.752 218.000,72.000 217.854,72.000 217.675 C 72.000 217.496,72.630 217.102,73.400 216.800 C 74.732 216.277,75.515 214.400,74.400 214.400 C 74.180 214.400,74.000 214.062,74.000 213.649 C 74.000 213.236,73.730 212.674,73.400 212.400 C 73.070 212.126,72.800 211.643,72.800 211.327 C 72.800 211.011,72.635 210.855,72.433 210.980 C 72.230 211.105,71.947 210.667,71.802 210.008 C 71.657 209.349,71.372 208.706,71.168 208.580 C 70.965 208.454,70.434 207.552,69.989 206.576 C 69.544 205.599,69.019 204.800,68.822 204.800 C 68.625 204.800,68.345 204.260,68.200 203.600 C 68.055 202.940,67.784 202.400,67.597 202.400 C 67.411 202.400,66.940 201.680,66.552 200.800 C 66.164 199.920,65.715 199.200,65.555 199.200 C 65.395 199.200,65.145 198.660,65.000 198.000 C 64.855 197.340,64.574 196.800,64.376 196.800 C 64.178 196.800,63.902 196.350,63.764 195.800 C 63.430 194.468,62.373 194.530,59.600 196.042 M259.200 262.480 C 259.090 272.754,259.137 281.023,259.304 280.856 C 259.471 280.689,259.561 272.283,259.504 262.176 L 259.400 243.800 259.200 262.480 " stroke="none" fill="#fcdb2c" fill-rule="evenodd"></path><path id="path1" d="M200.500 0.449 C 200.107 0.851,200.000 9.548,200.000 41.203 L 200.000 81.446 183.560 102.023 C 174.518 113.340,163.988 126.523,160.160 131.317 C 156.332 136.111,153.200 140.206,153.200 140.417 C 153.200 140.657,161.655 140.800,175.776 140.800 C 189.325 140.800,198.445 140.949,198.584 141.173 C 198.711 141.379,195.526 145.655,191.507 150.676 C 187.488 155.697,182.920 161.424,181.355 163.402 C 179.791 165.381,176.146 169.940,173.255 173.534 C 170.365 177.128,168.000 180.218,168.000 180.400 C 168.000 180.851,185.129 194.486,185.776 194.549 C 186.059 194.577,189.331 190.835,193.046 186.233 L 199.800 177.866 200.000 229.433 L 200.200 281.000 229.600 281.000 L 259.000 281.000 259.107 262.600 L 259.214 244.200 261.007 243.410 C 261.993 242.976,262.800 242.493,262.800 242.337 C 262.800 242.181,263.197 241.928,263.681 241.774 C 264.166 241.620,264.790 241.293,265.067 241.047 C 266.394 239.872,266.801 239.600,267.236 239.600 C 267.800 239.600,270.545 237.966,270.733 237.517 C 270.807 237.343,271.122 237.200,271.433 237.200 C 271.745 237.200,272.000 237.032,272.000 236.827 C 272.000 236.622,272.405 236.327,272.900 236.171 C 273.395 236.016,274.177 235.485,274.638 234.991 C 275.098 234.497,275.854 233.973,276.317 233.826 C 276.780 233.679,277.270 233.208,277.406 232.780 C 277.543 232.351,277.884 232.000,278.166 232.000 C 278.447 232.000,279.048 231.685,279.501 231.300 C 279.955 230.915,280.722 230.330,281.207 230.000 C 281.692 229.670,282.607 228.950,283.240 228.400 C 283.874 227.850,285.040 226.860,285.832 226.200 C 286.623 225.540,287.750 224.476,288.335 223.835 C 288.921 223.194,290.452 221.664,291.738 220.435 C 293.024 219.206,294.284 217.964,294.538 217.676 C 294.792 217.388,295.945 216.228,297.100 215.098 C 298.255 213.968,299.205 212.854,299.211 212.622 C 299.217 212.390,299.753 211.679,300.403 211.042 C 301.052 210.405,301.689 209.550,301.818 209.142 C 301.948 208.734,302.222 208.400,302.427 208.400 C 302.632 208.400,302.800 208.119,302.800 207.776 C 302.800 207.433,302.980 207.264,303.200 207.400 C 303.420 207.536,303.600 207.449,303.600 207.207 C 303.600 206.661,305.223 204.313,305.900 203.880 C 306.175 203.704,306.400 203.280,306.400 202.938 C 306.400 202.595,306.850 201.961,307.400 201.529 C 307.950 201.096,308.400 200.485,308.400 200.171 C 308.400 199.857,308.560 199.600,308.757 199.600 C 308.953 199.600,309.226 199.150,309.364 198.600 C 309.502 198.050,309.792 197.600,310.008 197.600 C 310.223 197.600,310.400 197.324,310.400 196.987 C 310.400 196.651,310.659 196.276,310.976 196.154 C 311.292 196.033,311.666 195.408,311.807 194.767 C 311.948 194.125,312.229 193.600,312.432 193.600 C 312.634 193.600,312.800 193.317,312.800 192.971 C 312.800 192.626,313.070 192.073,313.400 191.743 C 313.730 191.413,314.000 190.785,314.000 190.348 C 314.000 189.911,314.150 189.645,314.333 189.759 C 314.642 189.950,316.400 186.439,316.400 185.630 C 316.400 185.430,316.535 185.207,316.700 185.133 C 317.197 184.912,318.400 182.390,318.400 181.568 C 318.400 181.145,318.580 180.800,318.800 180.800 C 319.020 180.800,319.200 180.453,319.200 180.029 C 319.200 179.604,319.442 179.015,319.739 178.719 C 320.035 178.422,320.403 177.509,320.557 176.690 C 320.710 175.870,320.988 175.200,321.173 175.200 C 321.358 175.200,321.631 174.390,321.779 173.400 C 321.928 172.410,322.218 171.600,322.425 171.600 C 322.631 171.600,322.800 171.150,322.800 170.600 C 322.800 170.050,322.960 169.600,323.155 169.600 C 323.350 169.600,323.630 168.794,323.778 167.809 C 323.925 166.824,324.208 165.919,324.405 165.797 C 324.602 165.675,324.885 164.501,325.033 163.188 C 325.182 161.875,325.442 160.800,325.612 160.800 C 325.782 160.800,326.047 159.720,326.200 158.400 C 326.353 157.080,326.604 156.000,326.758 156.000 C 326.911 156.000,327.081 155.344,327.135 154.543 C 327.189 153.742,327.407 152.761,327.619 152.364 C 327.832 151.967,328.122 149.967,328.264 147.921 C 328.405 145.874,328.719 144.072,328.961 143.915 C 329.579 143.513,329.578 115.287,328.960 114.885 C 328.718 114.728,328.397 112.811,328.247 110.625 C 328.096 108.439,327.809 106.452,327.608 106.209 C 327.407 105.967,327.198 105.011,327.143 104.085 C 327.088 103.158,326.920 102.400,326.768 102.400 C 326.617 102.400,326.368 101.230,326.215 99.800 C 326.062 98.370,325.791 97.200,325.614 97.200 C 325.437 97.200,325.168 96.210,325.017 95.000 C 324.866 93.790,324.600 92.800,324.426 92.800 C 324.251 92.800,323.998 91.994,323.863 91.009 C 323.728 90.024,323.406 88.809,323.146 88.309 C 322.280 86.638,322.103 86.182,321.813 84.860 C 321.654 84.137,321.273 83.063,320.965 82.473 C 320.657 81.883,320.404 80.995,320.402 80.500 C 320.401 80.005,320.241 79.600,320.047 79.600 C 319.703 79.600,319.070 78.104,319.157 77.500 C 319.181 77.335,319.020 77.200,318.800 77.200 C 318.580 77.200,318.400 76.936,318.400 76.614 C 318.400 75.966,317.156 73.118,316.732 72.796 C 316.584 72.684,316.340 72.099,316.188 71.496 C 316.037 70.893,315.767 70.400,315.588 70.400 C 315.410 70.400,315.145 69.860,315.000 69.200 C 314.855 68.540,314.590 68.000,314.412 68.000 C 314.233 68.000,313.974 67.550,313.836 67.000 C 313.698 66.450,313.408 66.000,313.192 66.000 C 312.977 66.000,312.800 65.730,312.800 65.400 C 312.800 65.070,312.634 64.800,312.432 64.800 C 312.229 64.800,311.945 64.260,311.800 63.600 C 311.655 62.940,311.412 62.400,311.260 62.400 C 311.108 62.400,310.537 61.545,309.992 60.500 C 309.446 59.455,308.775 58.456,308.500 58.280 C 308.225 58.104,308.000 57.739,308.000 57.468 C 308.000 57.198,307.640 56.717,307.200 56.400 C 306.760 56.083,306.400 55.691,306.400 55.529 C 306.400 55.368,305.950 54.572,305.400 53.762 C 304.850 52.951,304.400 52.442,304.400 52.629 C 304.400 52.816,304.040 52.263,303.600 51.401 C 303.161 50.538,302.531 49.681,302.200 49.496 C 301.870 49.311,301.600 48.982,301.600 48.763 C 301.600 48.330,300.991 47.512,299.900 46.483 C 299.515 46.120,299.200 45.679,299.200 45.504 C 299.200 45.071,284.940 30.800,284.506 30.800 C 284.317 30.800,283.540 30.176,282.781 29.413 C 282.021 28.650,281.218 28.020,280.995 28.013 C 280.772 28.006,280.252 27.550,279.839 27.000 C 279.426 26.450,278.886 26.000,278.640 26.000 C 278.393 26.000,277.707 25.550,277.113 25.000 C 276.520 24.450,275.841 24.000,275.605 24.000 C 275.368 24.000,275.078 23.746,274.959 23.436 C 274.839 23.126,274.305 22.763,273.771 22.628 C 273.237 22.494,272.800 22.208,272.800 21.992 C 272.800 21.777,272.530 21.600,272.200 21.600 C 271.870 21.600,271.600 21.423,271.600 21.208 C 271.600 20.992,271.163 20.706,270.629 20.572 C 270.095 20.437,269.556 20.063,269.432 19.739 C 269.307 19.414,269.048 19.246,268.856 19.365 C 268.664 19.484,268.185 19.225,267.791 18.791 C 267.398 18.356,266.834 18.000,266.538 18.000 C 266.242 18.000,266.000 17.864,266.000 17.698 C 266.000 17.531,265.415 17.145,264.700 16.839 C 263.985 16.534,263.101 16.026,262.735 15.712 C 262.152 15.210,261.386 14.936,260.276 14.831 C 260.098 14.814,260.064 14.620,260.200 14.400 C 260.336 14.180,260.247 14.000,260.002 14.000 C 259.757 14.000,258.711 13.612,257.678 13.138 C 256.645 12.664,255.583 12.274,255.318 12.272 C 255.052 12.269,254.928 12.117,255.041 11.933 C 255.155 11.750,254.967 11.600,254.624 11.600 C 254.281 11.600,254.000 11.420,254.000 11.200 C 254.000 10.980,253.630 10.800,253.178 10.800 C 252.445 10.800,249.634 9.737,247.987 8.837 C 247.650 8.653,246.795 8.375,246.087 8.219 C 245.379 8.064,244.800 7.771,244.800 7.568 C 244.800 7.366,244.485 7.194,244.100 7.187 C 243.378 7.173,239.716 5.981,238.992 5.524 C 238.767 5.382,237.777 5.146,236.792 4.999 C 235.806 4.852,234.820 4.590,234.600 4.416 C 234.380 4.243,233.349 3.978,232.309 3.827 C 231.269 3.677,230.314 3.384,230.186 3.177 C 230.058 2.970,229.363 2.800,228.643 2.800 C 227.923 2.800,227.210 2.676,227.059 2.525 C 226.907 2.374,226.472 2.210,226.092 2.161 C 225.711 2.111,224.140 1.867,222.600 1.618 C 214.213 0.262,201.350 -0.419,200.500 0.449 M365.077 19.780 C 364.758 20.099,364.025 20.479,363.448 20.624 C 362.872 20.768,362.400 21.019,362.400 21.180 C 362.400 21.342,361.728 21.817,360.906 22.237 C 360.084 22.657,359.172 23.225,358.878 23.500 C 358.583 23.775,357.996 24.000,357.571 24.000 C 357.147 24.000,356.800 24.177,356.800 24.392 C 356.800 24.608,356.350 24.898,355.800 25.036 C 355.250 25.174,354.800 25.428,354.800 25.600 C 354.800 25.772,354.350 26.026,353.800 26.164 C 353.250 26.302,352.800 26.592,352.800 26.808 C 352.800 27.023,352.545 27.200,352.233 27.200 C 351.922 27.200,351.607 27.335,351.533 27.500 C 351.460 27.665,350.500 28.250,349.400 28.800 C 348.300 29.350,347.310 29.890,347.200 30.000 C 347.090 30.110,346.460 30.489,345.800 30.843 C 342.655 32.527,341.785 33.015,341.600 33.200 C 341.296 33.503,339.988 34.272,338.100 35.256 C 337.165 35.743,336.400 36.270,336.400 36.428 C 336.400 36.585,335.928 36.832,335.352 36.976 C 334.775 37.121,334.061 37.456,333.766 37.720 C 332.429 38.914,332.003 39.200,331.564 39.200 C 331.081 39.200,328.357 40.748,328.000 41.225 C 327.890 41.372,327.395 41.619,326.900 41.773 C 325.960 42.066,325.537 44.400,326.424 44.400 C 326.657 44.400,326.740 44.573,326.609 44.785 C 326.478 44.997,326.737 45.537,327.185 45.985 C 327.633 46.433,328.000 46.938,328.000 47.106 C 328.000 47.483,329.605 50.524,329.950 50.800 C 330.088 50.910,330.532 51.630,330.938 52.400 C 332.314 55.012,332.999 56.199,333.246 56.400 C 333.381 56.510,333.619 57.005,333.773 57.500 C 333.928 57.995,334.207 58.400,334.395 58.400 C 334.583 58.400,334.855 58.940,335.000 59.600 C 335.145 60.260,335.400 60.800,335.567 60.800 C 335.735 60.800,336.215 61.518,336.636 62.395 C 337.535 64.274,337.749 64.316,339.686 63.000 C 340.495 62.450,341.334 62.000,341.550 62.000 C 341.766 62.000,342.181 61.775,342.471 61.500 C 342.762 61.225,343.900 60.564,345.000 60.032 C 346.100 59.500,347.090 58.958,347.200 58.828 C 347.310 58.699,348.075 58.238,348.900 57.805 C 349.725 57.372,350.400 56.893,350.400 56.741 C 350.400 56.588,350.940 56.345,351.600 56.200 C 352.260 56.055,352.800 55.800,352.800 55.633 C 352.800 55.466,353.776 54.852,354.968 54.268 C 356.161 53.684,357.376 52.980,357.668 52.703 C 357.961 52.426,359.055 51.782,360.100 51.272 C 361.145 50.762,362.000 50.177,362.000 49.972 C 362.000 49.767,362.190 49.600,362.422 49.600 C 363.202 49.600,366.400 47.984,366.400 47.590 C 366.400 47.376,366.670 47.200,367.000 47.200 C 367.330 47.200,367.605 47.065,367.611 46.900 C 367.617 46.735,368.607 46.151,369.811 45.603 C 371.015 45.055,372.000 44.490,372.000 44.347 C 372.000 44.204,372.450 43.974,373.000 43.836 C 373.550 43.698,374.000 43.408,374.000 43.192 C 374.000 42.977,374.270 42.800,374.600 42.800 C 374.930 42.800,375.200 42.634,375.200 42.432 C 375.200 42.229,375.740 41.945,376.400 41.800 C 377.060 41.655,377.600 41.383,377.600 41.195 C 377.600 41.007,377.960 40.740,378.400 40.600 C 379.190 40.349,379.545 39.200,378.832 39.200 C 378.629 39.200,378.354 38.699,378.219 38.087 C 378.085 37.474,377.530 36.456,376.987 35.825 C 376.444 35.193,376.000 34.434,376.000 34.138 C 376.000 33.842,375.859 33.600,375.688 33.600 C 375.516 33.600,375.169 33.105,374.917 32.500 C 374.386 31.227,372.715 28.294,372.354 28.000 C 372.219 27.890,371.981 27.395,371.827 26.900 C 371.672 26.405,371.393 26.000,371.205 26.000 C 371.017 26.000,370.745 25.460,370.600 24.800 C 370.455 24.140,370.174 23.600,369.976 23.600 C 369.778 23.600,369.502 23.150,369.364 22.600 C 369.226 22.050,368.997 21.600,368.854 21.600 C 368.712 21.600,368.356 21.060,368.064 20.400 C 367.473 19.065,366.081 18.777,365.077 19.780 M351.600 128.767 C 351.600 135.129,351.709 140.619,351.843 140.967 C 352.060 141.534,354.566 141.600,376.043 141.600 L 400.000 141.600 400.000 129.400 L 400.000 117.200 375.800 117.200 L 351.600 117.200 351.600 128.767 M336.494 196.300 C 336.112 197.125,335.620 198.019,335.400 198.286 C 334.458 199.431,334.147 199.929,333.200 201.812 C 332.650 202.905,332.065 203.860,331.900 203.933 C 331.735 204.007,331.600 204.322,331.600 204.633 C 331.600 204.945,331.440 205.200,331.243 205.200 C 331.047 205.200,330.774 205.650,330.636 206.200 C 330.498 206.750,330.222 207.200,330.024 207.200 C 329.826 207.200,329.545 207.740,329.400 208.400 C 329.255 209.060,328.971 209.600,328.768 209.600 C 328.566 209.600,328.400 209.857,328.400 210.171 C 328.400 210.486,328.175 210.989,327.900 211.290 C 326.249 213.095,325.408 216.400,326.600 216.400 C 326.930 216.400,327.200 216.537,327.200 216.705 C 327.200 216.873,327.547 217.188,327.971 217.405 C 331.570 219.249,332.671 219.867,333.129 220.300 C 333.419 220.575,333.914 220.800,334.229 220.800 C 334.543 220.800,334.800 220.980,334.800 221.200 C 334.800 221.420,335.057 221.600,335.371 221.600 C 335.686 221.600,336.181 221.825,336.471 222.101 C 336.762 222.376,337.717 222.961,338.594 223.401 C 339.471 223.840,340.428 224.425,340.722 224.700 C 341.017 224.975,341.514 225.200,341.829 225.200 C 342.143 225.200,342.400 225.366,342.400 225.568 C 342.400 225.771,342.940 226.055,343.600 226.200 C 344.260 226.345,344.800 226.601,344.800 226.769 C 344.800 226.937,345.475 227.417,346.300 227.837 C 347.125 228.257,347.890 228.694,348.000 228.808 C 348.110 228.923,348.650 229.236,349.200 229.505 C 349.750 229.774,350.556 230.220,350.990 230.497 C 355.028 233.067,356.688 233.945,357.328 233.849 C 357.509 233.822,357.833 234.115,358.048 234.500 C 358.263 234.885,358.701 235.200,359.020 235.200 C 359.339 235.200,359.600 235.360,359.600 235.557 C 359.600 235.753,360.050 236.026,360.600 236.164 C 361.150 236.302,361.600 236.592,361.600 236.808 C 361.600 237.023,361.777 237.200,361.994 237.200 C 362.211 237.200,363.314 237.770,364.445 238.466 C 366.865 239.954,367.198 239.840,368.725 237.000 C 369.316 235.900,369.911 234.910,370.046 234.800 C 370.181 234.690,370.419 234.195,370.573 233.700 C 370.728 233.205,371.007 232.800,371.195 232.800 C 371.383 232.800,371.655 232.260,371.800 231.600 C 371.945 230.940,372.201 230.400,372.369 230.400 C 372.537 230.400,373.017 229.725,373.437 228.900 C 373.857 228.075,374.290 227.310,374.400 227.200 C 374.510 227.090,375.050 226.100,375.600 225.000 C 376.150 223.900,376.729 222.903,376.887 222.785 C 378.107 221.868,379.492 218.000,378.600 218.000 C 378.270 218.000,378.000 217.848,378.000 217.663 C 378.000 217.478,377.328 216.983,376.506 216.563 C 375.684 216.143,374.772 215.575,374.478 215.300 C 374.183 215.025,373.686 214.800,373.371 214.800 C 373.057 214.800,372.800 214.634,372.800 214.432 C 372.800 214.229,372.260 213.945,371.600 213.800 C 370.940 213.655,370.400 213.374,370.400 213.176 C 370.400 212.978,369.950 212.702,369.400 212.564 C 368.850 212.426,368.400 212.153,368.400 211.957 C 368.400 211.760,368.130 211.600,367.800 211.600 C 367.470 211.600,367.200 211.423,367.200 211.208 C 367.200 210.992,366.750 210.702,366.200 210.564 C 365.650 210.426,365.200 210.167,365.200 209.988 C 365.200 209.810,364.660 209.545,364.000 209.400 C 363.340 209.255,362.800 208.983,362.800 208.795 C 362.800 208.607,362.395 208.328,361.900 208.173 C 361.405 208.019,360.910 207.781,360.800 207.646 C 360.599 207.399,359.412 206.714,356.800 205.338 C 356.030 204.932,355.310 204.510,355.200 204.400 C 354.836 204.036,353.415 203.204,352.448 202.789 C 351.924 202.564,350.936 201.980,350.253 201.490 C 348.866 200.497,346.370 199.072,344.700 198.320 C 344.095 198.047,343.600 197.684,343.600 197.512 C 343.600 197.341,343.255 197.200,342.833 197.200 C 342.412 197.200,342.007 197.057,341.933 196.883 C 341.056 194.796,337.371 194.401,336.494 196.300 M140.985 262.400 C 140.985 272.630,141.036 276.815,141.100 271.700 C 141.163 266.585,141.163 258.215,141.100 253.100 C 141.036 247.985,140.985 252.170,140.985 262.400 " stroke="none" fill="#fcbc04" fill-rule="evenodd"></path><path id="path2" d="M118.300 281.013 C 118.135 281.189,118.000 286.703,118.000 293.267 L 118.000 305.200 129.400 305.200 L 140.800 305.200 140.800 316.600 L 140.800 328.000 129.400 328.000 L 118.000 328.000 118.000 340.000 L 118.000 352.000 141.376 352.000 C 156.529 352.000,164.840 351.859,165.000 351.600 C 165.159 351.343,171.471 351.200,182.624 351.200 L 200.000 351.200 200.000 339.843 C 200.000 329.856,200.076 328.456,200.633 328.243 C 200.981 328.109,214.391 328.000,230.433 328.000 L 259.600 328.000 259.600 316.600 L 259.600 305.200 230.280 305.200 C 208.009 305.200,200.845 305.085,200.480 304.720 C 199.775 304.015,199.794 281.750,200.500 281.465 C 200.775 281.354,190.110 281.249,176.800 281.231 C 163.490 281.213,144.950 281.085,135.600 280.946 C 126.250 280.807,118.465 280.837,118.300 281.013 " stroke="none" fill="#c9def4" fill-rule="evenodd"></path><path id="path3" d="M164.800 376.000 L 164.800 400.000 200.400 400.000 L 236.000 400.000 236.000 376.000 L 236.000 352.000 200.400 352.000 L 164.800 352.000 164.800 376.000 " stroke="none" fill="#675f5f" fill-rule="evenodd"></path><path id="path4" d="M230.000 281.201 C 213.610 281.318,200.155 281.455,200.100 281.506 C 199.701 281.880,200.068 304.308,200.480 304.720 C 200.847 305.087,210.587 305.200,241.880 305.200 L 282.800 305.200 282.800 293.000 L 282.800 280.800 271.300 280.895 C 264.975 280.947,246.390 281.085,230.000 281.201 M200.500 328.265 C 200.116 328.420,200.000 331.114,200.000 339.833 L 200.000 351.200 182.624 351.200 C 171.471 351.200,165.159 351.343,165.000 351.600 C 164.836 351.866,184.529 352.000,223.776 352.000 L 282.800 352.000 282.800 340.000 L 282.800 328.000 241.900 328.032 C 219.405 328.049,200.775 328.154,200.500 328.265 " stroke="none" fill="#acc4eb" fill-rule="evenodd"></path></g></svg>